# xmcd
#
# Track frame offsets:
#	150
#	20876
#	39836
#	62632
#	85827
#	103680
#	119146
#	151383
#	170784
#	190430
#	211838
#	238161
#	256858
#	276030
#
# Disc length: 3980 seconds
#
# Revision: 0
# Processed by: cddbd v1.5.2PL0 Copyright (c) Steve Scherf et al.
# Submitted via: EZCDAudioConverter 2.4.0.1
#
DISCID=c80f8a0e
DTITLE=Various Artist - Mau Xanh Noel
DYEAR=2010
DGENRE=Vietnamese
TTITLE0=Dan Nguyen - Suong Lanh Chieu Dong 
TTITLE1=Quoc Khanh, Doan Phi, Mai Thanh Son - Lien Khuc Mua Dong Cua Anh 
TTITLE2=Bang Tam - Tinh Nguoi Ngoai Dao 
TTITLE3=Dang The Luan - Bong Nho Giao Duong 
TTITLE4=Y Phuong - Loi Con Xin Chua 
TTITLE5=Tuong Khue, Tuong Nguyen - Mau Xanh Noel 
TTITLE6=Tam Doan - Hai Mua Noel 
TTITLE7=Lam Nhat Tien - Tuyet Roi 
TTITLE8=Diem Lien - Mot Ngay Mua Dong 
TTITLE9=Nguyen Khang - Bai Thanh Ca Buon 
TTITLE10=Ngoc Huyen - Chuyen Tinh Nguoi Dan Ao 
TTITLE11=Le Anh Quan - Chiec La Mua Dong 
TTITLE12=My Huyen - Mua Sao Sang 
TTITLE13=VA - Lien Khuc Silent Night 
EXTD=
EXTT0=
EXTT1=
EXTT2=
EXTT3=
EXTT4=
EXTT5=
EXTT6=
EXTT7=
EXTT8=
EXTT9=
EXTT10=
EXTT11=
EXTT12=
EXTT13=
PLAYORDER=
